<svg xmlns="http://www.w3.org/2000/svg" xmlns:xlink="http://www.w3.org/1999/xlink" viewBox="0 0 75 75" version="1.1" x="0px" y="0px"><g><path style="" d="M 33.808594 20.488281 L 68.550781 20.488281 C 70.277344 20.488281 71.675781 19.085938 71.675781 17.363281 C 71.675781 15.636719 70.277344 14.238281 68.550781 14.238281 L 33.808594 14.238281 C 32.082031 14.238281 30.683594 15.636719 30.683594 17.363281 C 30.683594 19.085938 32.082031 20.488281 33.808594 20.488281 Z M 33.808594 20.488281 " stroke="none" fill-rule="nonzero" fill="rgb(0%,0%,0%)" fill-opacity="1"></path><path style="" d="M 33.808594 31.238281 L 52.925781 31.238281 C 54.652344 31.238281 56.050781 29.839844 56.050781 28.113281 C 56.050781 26.390625 54.652344 24.988281 52.925781 24.988281 L 33.808594 24.988281 C 32.082031 24.988281 30.683594 26.390625 30.683594 28.113281 C 30.683594 29.839844 32.082031 31.238281 33.808594 31.238281 Z M 33.808594 31.238281 " stroke="none" fill-rule="nonzero" fill="rgb(0%,0%,0%)" fill-opacity="1"></path><path style="" d="M 33.808594 41.503906 L 41.988281 41.503906 C 43.710938 41.503906 45.113281 40.101562 45.113281 38.378906 C 45.113281 36.652344 43.710938 35.253906 41.988281 35.253906 L 33.808594 35.253906 C 32.085938 35.253906 30.683594 36.652344 30.683594 38.378906 C 30.683594 40.101562 32.082031 41.503906 33.808594 41.503906 Z M 33.808594 41.503906 " stroke="none" fill-rule="nonzero" fill="rgb(0%,0%,0%)" fill-opacity="1"></path><path style="" d="M 35.1875 51.652344 C 33.664062 50.125 31.1875 50.125 29.664062 51.652344 L 24.054688 57.261719 L 24.054688 6.535156 C 24.054688 4.378906 22.308594 2.628906 20.148438 2.628906 C 17.992188 2.628906 16.242188 4.378906 16.242188 6.535156 L 16.242188 57.261719 L 10.632812 51.652344 C 9.109375 50.125 6.632812 50.125 5.109375 51.652344 C 3.585938 53.179688 3.585938 55.652344 5.109375 57.175781 L 20.148438 72.214844 L 22.914062 69.453125 L 35.1875 57.175781 C 36.714844 55.652344 36.714844 53.179688 35.1875 51.652344 Z M 35.1875 51.652344 " stroke="none" fill-rule="nonzero" fill="rgb(0%,0%,0%)" fill-opacity="1"></path></g></svg>