<?xml version="1.0" encoding="UTF-8" standalone="no"?>
<svg width="50px" height="50px" viewBox="0 0 50 50" version="1.1" xmlns="http://www.w3.org/2000/svg" xmlns:xlink="http://www.w3.org/1999/xlink">
    <!-- Generator: Sketch 45.2 (43514) - http://www.bohemiancoding.com/sketch -->
    <title>icon-googleplus</title>
    <desc>Created with Sketch.</desc>
    <defs></defs>
    <g id="Page-1" stroke="none" stroke-width="1" fill="none" fill-rule="evenodd">
        <g id="icon-googleplus" fill-rule="nonzero" fill="#000000">
            <path d="M5.00823886,24.3654907 C4.74615111,17.4835189 10.7750484,11.1240816 17.6635842,11.0410949 C21.1748098,10.7414991 24.5898624,12.1045078 27.2488926,14.3297336 C26.1586381,15.526769 25.0477541,16.7123175 23.8647256,17.8217949 C21.5245141,16.4004143 18.7086532,15.3175442 15.9751929,16.2790405 C11.5637145,17.5347409 8.89606915,22.7409218 10.5255024,27.0554065 C11.8773173,31.5596588 17.3585379,34.0320863 21.6526863,32.1388656 C23.8779121,31.343284 25.3413721,29.290947 25.9846357,27.0863507 C23.4360785,27.0359492 20.8863492,27.0668934 18.337792,26.995921 C18.3332207,25.4798325 18.3246056,23.9703079 18.3332207,22.4536333 C22.582711,22.4473038 26.8402889,22.435055 31.0966948,22.4739697 C31.3570829,26.1877976 30.8093477,30.1648854 28.3952921,33.1461336 C25.0872548,37.4031255 18.9758983,38.6519689 14.0058425,36.9830349 C8.72839629,35.2500441 4.8937806,29.9353828 5.00823886,24.3654907 Z M37.2183691,18.6305044 L41.010085,18.6305044 C41.0163558,19.8990396 41.0283701,21.1724977 41.0346996,22.4413259 C42.3035278,22.4536333 43.5780995,22.4587906 44.8469277,22.4670541 L44.8469277,26.2644548 C43.5780995,26.2701982 42.3035278,26.2770551 41.0346996,26.2827986 C41.0237988,27.5567841 41.0163558,28.8256123 41.010085,30.1002426 C39.7417842,30.0944992 38.472956,30.1002426 37.2109261,30.1002426 C37.1983844,28.8256123 37.1983844,27.5567841 37.1868975,26.2896555 C35.9186554,26.2770551 34.6434977,26.2701982 33.3769551,26.2644548 L33.3769551,22.4670541 C34.6434977,22.4587906 35.9112124,22.4536333 37.1868975,22.4413259 C37.193227,21.1724977 37.2058274,19.8990396 37.2183691,18.6305044 Z" id="shape"></path>
        </g>
    </g>
</svg>