<?xml version="1.0" encoding="UTF-8" standalone="no"?>
<svg width="50px" height="50px" viewBox="0 0 50 50" version="1.1" xmlns="http://www.w3.org/2000/svg" xmlns:xlink="http://www.w3.org/1999/xlink">
    <!-- Generator: Sketch 43.1 (39012) - http://www.bohemiancoding.com/sketch -->
    <title>icon-pinterest</title>
    <desc>Created with Sketch.</desc>
    <defs></defs>
    <g id="Page-1" stroke="none" stroke-width="1" fill="none" fill-rule="evenodd">
        <g id="icon-pinterest" fill-rule="nonzero" fill="#000000">
            <g id="Pinterest-Icon" transform="translate(12.000000, 9.000000)">
                <path d="M14,0.8 C3.8,0.8 0.5,8.2 0.5,11.8 C0.5,15.3 3.8,20.8 6,20.8 C6.2,20.8 6.4,20.7 6.5,20.5 L8.4,16.2 L5.6,26.1 L5.6,26.2 C5.6,26.3 5.4,29.3 7.2,31.1 C7.3,31.2 7.4,31.2 7.6,31.2 C7.7,31.2 7.8,31.2 7.9,31.1 C8,31 9.8,29.5 10.5,27.9 C11,26.8 12.2,23.2 12.8,21.6 C13.4,22.1 14.5,22.7 16.1,22.7 C23.6,22.7 25.6,15.9 25.6,11.8 C25.5,7.7 23.1,0.8 14,0.8 L14,0.8 Z M8.2,15.3 C8.2,15.3 6.5,14.6 6.5,12.8 C6.5,8.6 10.4,5.8 14,5.8 C17.8,5.8 19.5,9.1 19.5,11.3 C19.5,14 17.5,18.8 16,18.8 C14.4,18.8 13.2,17.2 13,16.5 C14.4,14.9 15.5,12.1 15.5,11.3 L15.5,11.2 C15.5,10.7 15.5,9.6 14.7,8.7 C14.1,8.1 13.2,7.8 12,7.8 C8.6,7.8 7.5,10.8 7.5,12.3 C7.5,13.1 8,14.6 8.3,15.4 C8.3,15.3 8.2,15.3 8.2,15.3 Z" id="Shape"></path>
            </g>
        </g>
    </g>
</svg>