<?xml version="1.0" encoding="UTF-8" standalone="no"?>
<svg width="50px" height="50px" viewBox="0 0 50 50" version="1.1" xmlns="http://www.w3.org/2000/svg" xmlns:xlink="http://www.w3.org/1999/xlink">
    <!-- Generator: Sketch 45.2 (43514) - http://www.bohemiancoding.com/sketch -->
    <title>icon-twitter</title>
    <desc>Created with Sketch.</desc>
    <defs></defs>
    <g id="Page-1" stroke="none" stroke-width="1" fill="none" fill-rule="evenodd">
        <g id="icon-twitter" fill-rule="nonzero" fill="#000000">
            <path d="M44.2,12.6 C43.9333333,12.3333333 43.6666667,12.3333333 43.4,12.4666667 C43,12.6 42.4666667,12.8666667 41.9333333,13.1333333 C42.4666667,12.3333333 42.8666667,11.4 43,10.6 C43.1333333,10.3333333 43,10.0666667 42.7333333,9.93333333 C42.4666667,9.8 42.2,9.8 41.9333333,9.93333333 C40.6,10.7333333 38.7333333,11.4 38.0666667,11.5333333 C36.6,10.3333333 34.7333333,9.66666667 33,9.66666667 C30.7333333,9.66666667 28.6,10.6 26.8666667,12.2 C25.2666667,13.8 24.3333333,15.9333333 24.3333333,18.3333333 C17.8,17.6666667 13.9333333,13.6666667 10.8666667,9.93333333 C10.7333333,9.8 10.4666667,9.66666667 10.3333333,9.66666667 C10.0666667,9.66666667 9.93333333,9.8 9.8,9.93333333 C7.93333333,13 8.33333333,16.0666667 8.73333333,17.5333333 C9,18.6 9.4,19.4 9.93333333,20.2 C9.26666667,19.9333333 8.73333333,19.6666667 8.2,19.1333333 C8.06666667,19 7.66666667,19 7.53333333,19 C7.26666667,19.1333333 7.13333333,19.4 7.13333333,19.6666667 C7.13333333,23.5333333 9.8,26.0666667 11.9333333,27.4 C11.5333333,27.2666667 11.1333333,27.2666667 10.6,27 C10.3333333,26.8666667 10.0666667,27 9.93333333,27.1333333 C9.8,27.2666667 9.66666667,27.6666667 9.8,27.8 C11,30.6 13.6666667,32.7333333 16.6,33.2666667 C13.9333333,34.8666667 9.66666667,35.8 6.46666667,35.5333333 C6.2,35.5333333 5.8,35.6666667 5.8,35.9333333 C5.66666667,36.2 5.8,36.6 6.06666667,36.7333333 C10.0666667,39 14.3333333,40.2 18.4666667,40.2 L18.4666667,40.2 C25,40.2 31.5333333,37.2666667 36.0666667,32.0666667 C40.0666667,27.6666667 42.2,22.0666667 41.8,17.1333333 C42.4666667,16.6 42.8666667,15.6666667 43.4,14.7333333 C43.6666667,14.3333333 43.9333333,13.8 44.2,13.4 C44.3333333,13.1333333 44.3333333,12.7333333 44.2,12.6 L44.2,12.6 Z" id="Shape"></path>
        </g>
    </g>
</svg>