<?xml version="1.0" encoding="UTF-8" standalone="no"?>
<svg width="50px" height="50px" viewBox="0 0 50 50" version="1.1" xmlns="http://www.w3.org/2000/svg" xmlns:xlink="http://www.w3.org/1999/xlink">
    <!-- Generator: Sketch 45.2 (43514) - http://www.bohemiancoding.com/sketch -->
    <title>icon-vimeo</title>
    <desc>Created with Sketch.</desc>
    <defs></defs>
    <g id="Page-1" stroke="none" stroke-width="1" fill="none" fill-rule="evenodd">
        <g id="icon-vimeo" fill-rule="nonzero" fill="#000000">
            <path d="M36.3333333,6 C31.4,6 26.3333333,7.33333333 26.3333333,17.3333333 C26.3333333,17.7333333 26.6,18 27,18 L29.8,18 C31.4,18 31.6666667,18.8 31.6666667,19.4666667 C32.0666667,22.5333333 27.9333333,28.4 26.8666667,28.6666667 C25.5333333,28.6666667 24.6,23.0666667 23.8,18.9333333 C22.7333333,12.2666667 21.6666667,6 18.3333333,6 C15.9333333,6 10.8666667,9.86666667 5.13333333,18.2666667 C5,18.4 5,18.6666667 5,18.8 C5,18.9333333 5.13333333,19.2 5.26666667,19.2 L8.6,21.2 C8.86666667,21.3333333 9.13333333,21.3333333 9.4,21.0666667 L11.8,18.6666667 C12.6,24.5333333 15.5333333,43.3333333 23,43.3333333 C31.4,43.3333333 45,24.9333333 45,16 C45,11.2 41.9333333,6 36.3333333,6 Z" id="shape"></path>
        </g>
    </g>
</svg>