<?xml version="1.0" encoding="UTF-8" standalone="no"?>
<svg width="50px" height="50px" viewBox="0 0 50 50" version="1.1" xmlns="http://www.w3.org/2000/svg" xmlns:xlink="http://www.w3.org/1999/xlink">
    <!-- Generator: Sketch 45.2 (43514) - http://www.bohemiancoding.com/sketch -->
    <title>icon-pinterest</title>
    <desc>Created with Sketch.</desc>
    <defs></defs>
    <g id="Page-1" stroke="none" stroke-width="1" fill="none" fill-rule="evenodd">
        <g id="icon-pinterest" fill-rule="nonzero" fill="#000000">
            <path d="M36.2035586,9.07185105 C33.4684004,6.44614023 29.6832399,5 25.5453872,5 C19.2246113,5 15.3370521,7.59097988 13.1888597,9.76441945 C10.541362,12.4429316 9.02319668,15.9994574 9.02319668,19.5222775 C9.02319668,23.945411 10.8732924,27.340329 13.9715235,28.6033307 C14.1795247,28.6885561 14.3888075,28.7314892 14.5939893,28.7314892 C15.2475975,28.7314892 15.7654859,28.3038244 15.9449077,27.6177921 C16.0494851,27.2242174 16.2918327,26.2532888 16.397179,25.8317756 C16.6227379,24.9993863 16.4404966,24.5990192 15.9486243,24.0193584 C15.0525403,22.9591034 14.6352563,21.705329 14.6352563,20.0736153 C14.6352563,15.2269181 18.2441989,10.0758445 24.933046,10.0758445 C30.2403448,10.0758445 33.5372215,13.0923106 33.5372215,17.9479788 C33.5372215,21.0121198 32.8772054,23.8498048 31.678411,25.9386597 C30.8453809,27.3900545 29.3805296,29.1201939 27.1317328,29.1201939 C26.1592663,29.1201939 25.2857382,28.7207239 24.7345286,28.0243107 C24.2138207,27.3659607 24.0422165,26.515501 24.2516274,25.629157 C24.488208,24.6277267 24.8107828,23.583107 25.1229769,22.5732182 C25.692385,20.7287614 26.2306506,18.9867033 26.2306506,17.5968246 C26.2306506,15.2194849 24.7691313,13.6221177 22.5941539,13.6221177 C19.8300319,13.6221177 17.6645381,16.4295572 17.6645381,20.013509 C17.6645381,21.7712025 18.1316758,23.0858521 18.3431373,23.5906683 C17.9949307,25.0660287 15.9254276,33.8373228 15.5328782,35.4913361 C15.3059096,36.4568821 13.9385868,44.0829521 16.2017373,44.691064 C18.7445296,45.3742769 21.0174202,37.9469806 21.2487462,37.1076708 C21.4362421,36.4250988 22.0922853,33.8441152 22.4943184,32.2575133 C23.7218203,33.4399034 25.6982803,34.2392278 27.6214264,34.2392278 C31.2469014,34.2392278 34.5073812,32.6077704 36.802315,29.6456436 C39.0280432,26.7725869 40.253879,22.7681472 40.253879,18.3705173 C40.253879,14.9325381 38.7774934,11.5432591 36.2035586,9.07185105 Z" id="shape"></path>
        </g>
    </g>
</svg>