<?xml version="1.0" encoding="UTF-8" standalone="no"?>
<svg width="50px" height="50px" viewBox="0 0 50 50" version="1.1" xmlns="http://www.w3.org/2000/svg" xmlns:xlink="http://www.w3.org/1999/xlink">
    <!-- Generator: Sketch 45.2 (43514) - http://www.bohemiancoding.com/sketch -->
    <title>icon-linkedin</title>
    <desc>Created with Sketch.</desc>
    <defs></defs>
    <g id="Page-1" stroke="none" stroke-width="1" fill="none" fill-rule="evenodd">
        <g id="icon-linkedin" fill-rule="nonzero" fill="#000000">
            <path d="M43.527003,28.6211122 L43.527003,42.8647911 L35.2694188,42.8647911 L35.2694188,29.575068 C35.2694188,26.2365812 34.0750483,23.9581945 31.0860765,23.9581945 C28.8043756,23.9581945 27.4465338,25.4936601 26.8491694,26.9789647 C26.6313272,27.5099553 26.5752543,28.2490247 26.5752543,28.992304 L26.5752543,42.8647911 L18.3148933,42.8647911 C18.3148933,42.8647911 18.4261433,20.3563621 18.3148933,18.024321 L26.5744481,18.024321 L26.5744481,21.5453582 C26.5576979,21.5716928 26.5359316,21.6000875 26.5201667,21.6256159 L26.5744481,21.6256159 L26.5744481,21.5453582 C27.6718107,19.8551995 29.6315851,17.4407509 34.0181692,17.4407509 C39.4528506,17.4406613 43.527003,20.9910786 43.527003,28.6211122 Z M9.67420399,6.04998191 C6.84834524,6.04998191 5,7.90352239 5,10.3409913 C5,12.7253432 6.79486997,14.6351357 9.56456626,14.6351357 L9.61974342,14.6351357 C12.5003315,14.6351357 14.2917977,12.7257015 14.2917977,10.3409913 C14.2375162,7.90352239 12.5003315,6.04998191 9.67420399,6.04998191 Z M5.49059301,42.8647911 L13.7478189,42.8647911 L13.7478189,18.024321 L5.49059301,18.024321 L5.49059301,42.8647911 Z" id="shape"></path>
        </g>
    </g>
</svg>