<?xml version="1.0" encoding="UTF-8" standalone="no"?>
<svg width="50px" height="50px" viewBox="0 0 50 50" version="1.1" xmlns="http://www.w3.org/2000/svg" xmlns:xlink="http://www.w3.org/1999/xlink">
    <!-- Generator: Sketch 43.1 (39012) - http://www.bohemiancoding.com/sketch -->
    <title>icon-twitter</title>
    <desc>Created with Sketch.</desc>
    <defs></defs>
    <g id="Page-1" stroke="none" stroke-width="1" fill="none" fill-rule="evenodd">
        <g id="icon-twitter" fill-rule="nonzero" fill="#000000">
            <g id="Twitter-Icon" transform="translate(10.000000, 13.000000)">
                <path d="M29.4,2.7 C29.2,2.5 29,2.5 28.8,2.6 C28.5,2.7 28.1,2.9 27.7,3.1 C28.1,2.5 28.4,1.8 28.5,1.2 C28.6,1 28.5,0.8 28.3,0.7 C28.1,0.6 27.9,0.6 27.7,0.7 C26.7,1.3 25.3,1.8 24.8,1.9 C23.7,1 22.3,0.5 21,0.5 C19.3,0.5 17.7,1.2 16.4,2.4 C15.2,3.6 14.5,5.2 14.5,7 C9.6,6.5 6.7,3.5 4.4,0.7 C4.3,0.6 4.1,0.5 4,0.5 C3.8,0.5 3.7,0.6 3.6,0.7 C2.2,3 2.5,5.3 2.8,6.4 C3,7.2 3.3,7.8 3.7,8.4 C3.2,8.2 2.8,8 2.4,7.6 C2.3,7.5 2,7.5 1.9,7.5 C1.7,7.6 1.6,7.8 1.6,8 C1.6,10.9 3.6,12.8 5.2,13.8 C4.9,13.7 4.6,13.7 4.2,13.5 C4,13.4 3.8,13.5 3.7,13.6 C3.6,13.7 3.5,14 3.6,14.1 C4.5,16.2 6.5,17.8 8.7,18.2 C6.7,19.4 3.5,20.1 1.1,19.9 C0.9,19.9 0.6,20 0.6,20.2 C0.5,20.4 0.6,20.7 0.8,20.8 C3.8,22.5 7,23.4 10.1,23.4 L10.1,23.4 C15,23.4 19.9,21.2 23.3,17.3 C26.3,14 27.9,9.8 27.6,6.1 C28.1,5.7 28.4,5 28.8,4.3 C29,4 29.2,3.6 29.4,3.3 C29.5,3.1 29.5,2.8 29.4,2.7 L29.4,2.7 Z" id="Shape"></path>
            </g>
        </g>
    </g>
</svg>