<?xml version="1.0" encoding="UTF-8" standalone="no"?>
<svg width="50px" height="50px" viewBox="0 0 50 50" version="1.1" xmlns="http://www.w3.org/2000/svg" xmlns:xlink="http://www.w3.org/1999/xlink">
    <!-- Generator: Sketch 43.1 (39012) - http://www.bohemiancoding.com/sketch -->
    <title>icon-whatsapp</title>
    <desc>Created with Sketch.</desc>
    <defs></defs>
    <g id="Page-1" stroke="none" stroke-width="1" fill="none" fill-rule="evenodd">
        <g id="icon-whatsapp" fill-rule="nonzero" fill="#000000">
            <g id="WhatsApp-Icon" transform="translate(10.000000, 10.000000)">
                <path d="M16,-1.57772181e-30 C7.7,-1.57772181e-30 1,6.7 1,15 C1,17.9 1.8,20.7 3.4,23.2 L1,29.3 C0.9,29.5 1,29.7 1.1,29.8 C1.2,29.9 1.4,30 1.5,30 L1.7,30 L8,27.7 C10.4,29.2 13.1,30 16,30 C24.3,30 31,23.3 31,15 C31,6.7 24.3,-3.55271368e-15 16,-3.55271368e-15 L16,-1.57772181e-30 Z M24,19.2 C24,20.5 22.5,22 20.4,22 C18.5,22 14.5,19.4 12.8,17.7 C11,15.9 9,12.5 9,10.6 C9,8.6 10.7,7 12.1,7 L13.1,7 C13.3,7 13.4,7.1 13.5,7.2 C13.5,7.3 14.6,8.8 15.1,9.8 C15.7,10.9 14.4,12.2 13.7,12.8 C14,13.3 14.6,14.5 15.5,15.4 C16.5,16.4 18,17 18.6,17.2 C19,16.7 19.8,15.9 20.7,15.9 C20.9,15.9 21.1,16 21.3,16 C22.3,16.5 23.6,17.3 23.7,17.3 C23.9,17.4 23.9,17.6 23.9,17.7 L24,19.2 L24,19.2 L24,19.2 Z" id="Shape"></path>
            </g>
        </g>
    </g>
</svg>