<?xml version="1.0" encoding="UTF-8" standalone="no"?>
<svg width="50px" height="50px" viewBox="0 0 50 50" version="1.1" xmlns="http://www.w3.org/2000/svg" xmlns:xlink="http://www.w3.org/1999/xlink">
    <!-- Generator: Sketch 43.1 (39012) - http://www.bohemiancoding.com/sketch -->
    <title>icon-google-plus</title>
    <desc>Created with Sketch.</desc>
    <defs></defs>
    <g id="Page-1" stroke="none" stroke-width="1" fill="none" fill-rule="evenodd">
        <g id="icon-google-plus" fill-rule="nonzero" fill="#000000">
            <g id="G+-Icon" transform="translate(11.000000, 10.000000)">
                <path d="M15.5,15.9 C14.8,15.4 14,14.8 14,14.5 C14,14.1 14.8,13.3 15.5,12.5 C17,10.9 19,8.8 19,6 C19,3.4 17.4,1.9 15.5,1 L18.5,1 C18.8,1 19,0.8 19,0.5 C19,0.2 18.8,0 18.5,0 L10.5,0 L10,0 C9.6,0 9.3,0 9,0.1 C8.9,0.1 8.8,0.2 8.7,0.2 L8.6,0.2 C5.6,0.9 2,3.1 2,7.5 C2,11.9 6.6,13.6 9.6,13.9 C8.8,15.4 9.1,16.9 9.6,18 C6.2,18.1 0,19.1 0,24.3 C0,28 3.3,30 9.2,30 L9.5,30 C11.7,30 20,28.8 20,23 C20,19.1 17.3,17.2 15.5,15.9 Z M6.9,6.9 C6.3,4.3 7.2,1.8 8.9,1.2 C9.3,1.1 9.7,1 10,1 C11.7,1.2 13.3,2.9 13.8,5.2 C14.4,8 13.4,10.6 11.5,11 C9.6,11.5 7.5,9.5 6.9,6.9 Z M10.5,28 C7.8,28 5,26.3 5,23.5 C5,20.6 8.2,19 11.4,19 C12.8,19.7 16,21.6 16,23.5 C16,25.9 13,28 10.5,28 Z" id="Shape"></path>
                <path d="M27.5,12 L25,12 L25,9.5 C25,9.2 24.8,9 24.5,9 C24.2,9 24,9.2 24,9.5 L24,12 L21.5,12 C21.2,12 21,12.2 21,12.5 C21,12.8 21.2,13 21.5,13 L24,13 L24,15.5 C24,15.8 24.2,16 24.5,16 C24.8,16 25,15.8 25,15.5 L25,13 L27.5,13 C27.8,13 28,12.8 28,12.5 C28,12.2 27.8,12 27.5,12 Z" id="Shape"></path>
            </g>
        </g>
    </g>
</svg>