<?xml version="1.0" encoding="UTF-8" standalone="no"?>
<svg width="50px" height="50px" viewBox="0 0 50 50" version="1.1" xmlns="http://www.w3.org/2000/svg" xmlns:xlink="http://www.w3.org/1999/xlink">
    <!-- Generator: Sketch 45.2 (43514) - http://www.bohemiancoding.com/sketch -->
    <title>icon-facebook</title>
    <desc>Created with Sketch.</desc>
    <defs></defs>
    <g id="Page-1" stroke="none" stroke-width="1" fill="none" fill-rule="evenodd">
        <g id="icon-facebook" fill-rule="nonzero" fill="#000000">
            <path d="M30,11.6666667 L34.6666667,11.6666667 C35.0666667,11.6666667 35.3333333,11.4 35.3333333,11 L35.3333333,5.66666667 C35.3333333,5.26666667 35.0666667,5 34.6666667,5 L29.3333333,5 C24.4,5 20.6666667,8.73333333 20.6666667,13.6666667 L20.6666667,19.6666667 L14.6666667,19.6666667 C14.2666667,19.6666667 14,19.9333333 14,20.3333333 L14,25.6666667 C14,26.0666667 14.2666667,26.3333333 14.6666667,26.3333333 L20.6666667,26.3333333 L20.6666667,44.3333333 C20.6666667,44.7333333 20.9333333,45 21.3333333,45 L26.6666667,45 C27.0666667,45 27.3333333,44.7333333 27.3333333,44.3333333 L27.3333333,26.3333333 L33.3333333,26.3333333 C33.6,26.3333333 33.8666667,26.0666667 34,25.8 L35.3333333,20.4666667 C35.3333333,20.3333333 35.3333333,20.0666667 35.2,19.9333333 C35.0666667,19.8 34.9333333,19.6666667 34.6666667,19.6666667 L27.3333333,19.6666667 L27.3333333,14.3333333 C27.3333333,12.8666667 28.5333333,11.6666667 30,11.6666667 Z" id="shape"></path>
        </g>
    </g>
</svg>