<?xml version="1.0" encoding="UTF-8" standalone="no"?>
<svg width="50px" height="50px" viewBox="0 0 50 50" version="1.1" xmlns="http://www.w3.org/2000/svg" xmlns:xlink="http://www.w3.org/1999/xlink">
    <!-- Generator: Sketch 43.1 (39012) - http://www.bohemiancoding.com/sketch -->
    <title>icon-instagram</title>
    <desc>Created with Sketch.</desc>
    <defs></defs>
    <g id="Page-1" stroke="none" stroke-width="1" fill="none" fill-rule="evenodd">
        <g id="icon-instagram" fill-rule="nonzero" fill="#000000">
            <g id="Instagram-Icon" transform="translate(10.000000, 10.000000)">
                <path d="M25.5,0 L4.5,0 C3.8,0 3.1,0.2 2.5,0.5 C2.3,0.5 2.2,0.6 2.1,0.7 C0.8,1.5 0,2.9 0,4.5 L0,9.5 L0,25.5 C0,28 2,30 4.5,30 L25.5,30 C28,30 30,28 30,25.5 L30,9.5 L30,4.5 C30,2 28,0 25.5,0 Z M2,2.1 L2,5.5 C2,5.8 2.2,6 2.5,6 C2.8,6 3,5.8 3,5.5 L3,1.4 C3.3,1.2 3.6,1.1 4,1 L4,5.5 C4,5.8 4.2,6 4.5,6 C4.8,6 5,5.8 5,5.5 L5,1 L6,1 L6,5.5 C6,5.8 6.2,6 6.5,6 C6.8,6 7,5.8 7,5.5 L7,1 L25.5,1 C27.4,1 29,2.6 29,4.5 L29,9 L21.5,9 C21.3,9 21.1,9.1 21,9.3 C20.9,9.5 20.9,9.7 21.1,9.8 C22.3,11.2 23,13.1 23,15 C23,19.4 19.4,23 15,23 C10.6,23 7,19.4 7,15 C7,13.1 7.7,11.3 8.9,9.8 C9,9.7 9.1,9.5 9,9.3 C8.9,9.1 8.7,9 8.5,9 L1,9 L1,4.5 C1,3.6 1.4,2.7 2,2.1 Z" id="Shape"></path>
                <path d="M21.5,7 L25.5,7 C25.8,7 26,6.8 26,6.5 L26,2.5 C26,2.2 25.8,2 25.5,2 L21.5,2 C21.2,2 21,2.2 21,2.5 L21,6.5 C21,6.8 21.2,7 21.5,7 Z" id="Shape"></path>
                <path d="M15,22 C18.9,22 22,18.9 22,15 C22,11.1 18.9,8 15,8 C11.1,8 8,11.1 8,15 C8,18.9 11.1,22 15,22 Z M15,12 C16.7,12 18,13.3 18,15 C18,16.7 16.7,18 15,18 C13.3,18 12,16.7 12,15 C12,13.3 13.3,12 15,12 Z" id="Shape"></path>
            </g>
        </g>
    </g>
</svg>