<?xml version="1.0" encoding="UTF-8" standalone="no"?>
<svg width="50px" height="50px" viewBox="0 0 50 50" version="1.1" xmlns="http://www.w3.org/2000/svg" xmlns:xlink="http://www.w3.org/1999/xlink">
    <!-- Generator: Sketch 45.2 (43514) - http://www.bohemiancoding.com/sketch -->
    <title>icon-buffer</title>
    <desc>Created with Sketch.</desc>
    <defs></defs>
    <g id="Page-1" stroke="none" stroke-width="1" fill="none" fill-rule="evenodd">
        <g id="icon-buffer" fill-rule="nonzero" fill="#000000">
            <path d="M6.45900894,14.9574205 C5.89242679,14.6848419 5.89242679,13.8782111 6.45900894,13.6056325 L24.1830133,5.07425804 C24.3886251,4.9753221 24.6282251,4.9753221 24.8337247,5.07425804 L42.5580656,13.6055203 C43.1246477,13.8780989 43.1246477,14.6848419 42.5580656,14.9573083 L24.833949,23.4889071 C24.6283372,23.587843 24.3887373,23.587843 24.1831255,23.4889071 L6.45900894,14.9574205 Z M6.45900894,25.3058736 C5.89242679,25.0334071 5.89242679,24.2267763 6.45889677,23.9538612 L10.1986082,22.1538327 L22.0741746,27.8702439 C22.8299914,28.2337943 23.6712834,28.4256088 24.5085372,28.4256088 C25.3457911,28.4256088 26.1873075,28.2337943 26.9417782,27.8708048 L38.8186907,22.1542814 L42.5580656,23.9539733 C43.1246477,24.2267763 43.1246477,25.0335193 42.5580656,25.3059858 L24.833949,33.8374723 C24.6283372,33.9364083 24.3887373,33.9364083 24.1831255,33.8374723 L6.45900894,25.3058736 Z M42.5580656,34.3026508 C43.1246477,34.5753415 43.1246477,35.3818602 42.5579534,35.6547753 L24.8338368,44.1862619 C24.6282251,44.2851979 24.3886251,44.2851979 24.1830133,44.1862619 L6.45889677,35.6547753 C5.89231462,35.3819724 5.89231462,34.5755659 6.45889677,34.3027629 L10.1986082,32.5026223 L22.0741746,38.2189213 C22.8299914,38.5824717 23.6712834,38.7742863 24.5085372,38.7742863 C25.3457911,38.7742863 26.1873075,38.5824717 26.9417782,38.2194822 L38.8186907,32.5026223 L42.5580656,34.3026508 Z" id="shape"></path>
        </g>
    </g>
</svg>