<?xml version="1.0" encoding="UTF-8" standalone="no"?>
<svg width="50px" height="50px" viewBox="0 0 50 50" version="1.1" xmlns="http://www.w3.org/2000/svg" xmlns:xlink="http://www.w3.org/1999/xlink">
    <!-- Generator: Sketch 45.2 (43514) - http://www.bohemiancoding.com/sketch -->
    <title>icon-whatsapp</title>
    <desc>Created with Sketch.</desc>
    <defs></defs>
    <g id="Page-1" stroke="none" stroke-width="1" fill="none" fill-rule="evenodd">
        <g id="icon-whatsapp" fill="#000000">
            <path d="M5.08722961,44.7557376 L7.84427327,34.685074 C6.14324147,31.7381616 5.24883852,28.3950679 5.24992753,24.9701351 C5.25417466,14.254996 13.9720715,5.53758921 24.683508,5.53758921 C29.8823817,5.53971278 34.7616313,7.56352679 38.4306654,11.2373525 C42.0996995,14.9100893 44.1192664,19.7925515 44.1170884,24.9855446 C44.1128412,35.7001391 35.3943999,44.4186349 24.6840525,44.4186349 C24.683508,44.4186349 24.684597,44.4186349 24.6840525,44.4186349 L24.6755582,44.4186349 C21.4233967,44.4175459 18.2276458,43.6013338 15.3891987,42.0528721 L5.08722961,44.7557376 Z M34.4745141,29.6063724 C34.5957208,29.8089825 34.5957208,30.7810318 34.1910996,31.9157245 C33.7864239,33.0499272 31.8466269,34.0847034 30.9134008,34.2245866 C30.0769875,34.3495504 29.0183076,34.4016594 27.8553551,34.0321043 C27.1497318,33.8082041 26.2452555,33.50938 25.0870946,33.0090349 C20.2157948,30.9059411 17.0344188,26.0011542 16.791951,25.6767929 C16.5489387,25.3529761 14.8090293,23.0441685 14.8090293,20.6539575 C14.8090293,18.2638009 16.0634585,17.0891415 16.508482,16.6031713 C16.9535599,16.1171467 17.4799868,15.9953955 17.8033135,15.9953955 C18.1271303,15.9953955 18.4514916,15.9985536 18.7343616,16.012384 C19.0321511,16.0277935 19.4325796,15.8996716 19.826583,16.8461836 C20.2312587,17.8181785 21.202219,20.2083895 21.3239702,20.4514018 C21.4451768,20.6943597 21.5260357,20.9783187 21.3643724,21.30219 C21.202219,21.6260068 21.1213601,21.8291069 20.8788922,22.1125214 C20.6358799,22.395936 20.3689639,22.74529 20.1503998,22.9633096 C19.9073875,23.2052874 19.6543018,23.4679563 19.9377164,23.9539809 C20.2205864,24.4399511 21.1953038,26.0303941 22.6389483,27.3177659 C24.4936937,28.9720247 26.0580549,29.4851657 26.543535,29.728178 C27.0290152,29.9711903 27.3124297,29.9302436 27.5958443,29.6063724 C27.8787688,29.2825556 28.8093268,28.1887551 29.1331436,27.7022404 C29.4569604,27.2162158 29.7807771,27.2975648 30.2258551,27.4592281 C30.670933,27.6213815 33.0579314,28.7959865 33.5439561,29.0389988 C34.0294362,29.2825556 34.3527085,29.4038167 34.4745141,29.6063724 Z M15.8661846,38.5348835 L16.4563729,38.8847821 C18.9359371,40.356632 21.7791214,41.1351099 24.6771372,41.136689 L24.6840525,41.136689 C33.5864819,41.136689 40.8325288,33.890642 40.8362859,24.9839655 C40.837865,20.6683324 39.1591579,16.6100865 36.1096064,13.556778 C33.060055,10.5040684 29.0044772,8.8216587 24.6904232,8.82002518 C15.780534,8.82002518 8.53448707,16.0655821 8.53132894,24.9711696 C8.52969543,28.0228446 9.38369616,30.9952942 11.0007109,33.5668253 L11.384641,34.1783037 L9.7532513,40.1386124 L15.8661846,38.5348835 Z" id="shape"></path>
        </g>
    </g>
</svg>