<?xml version="1.0" encoding="UTF-8" standalone="no"?>
<svg width="50px" height="50px" viewBox="0 0 50 50" version="1.1" xmlns="http://www.w3.org/2000/svg" xmlns:xlink="http://www.w3.org/1999/xlink">
    <!-- Generator: Sketch 45.2 (43514) - http://www.bohemiancoding.com/sketch -->
    <title>icon-reddit</title>
    <desc>Created with Sketch.</desc>
    <defs></defs>
    <g id="Page-1" stroke="none" stroke-width="1" fill="none" fill-rule="evenodd">
        <g id="icon-reddit" fill-rule="nonzero" fill="#000000">
            <path d="M32.8624706,25.7637826 C32.9630398,26.0209135 33.0087036,26.2864706 33.0087036,26.5503062 C33.0087036,27.0814203 32.8252328,27.5973131 32.5173642,28.0184353 C32.2129385,28.4345744 31.7815782,28.7575736 31.2741114,28.8997296 L31.2750174,28.8997296 C31.2707591,28.901451 31.2665008,28.901451 31.2644169,28.9030819 C31.262333,28.9030819 31.2588901,28.9048033 31.2572593,28.9048033 C31.0196079,28.9859835 30.7759767,29.0240367 30.5342483,29.0240367 C29.9676178,29.0240367 29.4111349,28.8198178 28.9662748,28.4717215 C28.5248575,28.1250749 28.1907141,27.6269402 28.0858865,27.0361188 L28.0849805,27.0361188 C28.0849805,27.0343974 28.0849805,27.0323135 28.0841651,27.0298672 C28.0841651,27.0281458 28.0841651,27.0264243 28.0824436,27.0239781 L28.0841651,27.0239781 C28.0511856,26.8716746 28.0342429,26.7195524 28.0342429,26.569061 C28.0342429,26.0574265 28.2084722,25.5660871 28.4960458,25.1600955 C28.7827133,24.7566409 29.1869834,24.4361785 29.6601116,24.2711906 C29.6618331,24.2711906 29.6635545,24.2702846 29.6635545,24.2702846 C29.6660008,24.2702846 29.6660008,24.2678383 29.6681753,24.2678383 C29.9358162,24.1689 30.218316,24.1193402 30.4978259,24.1193402 C31.0069235,24.1193402 31.5084105,24.2737275 31.9312541,24.5561367 C32.349024,24.8339252 32.6881506,25.2411851 32.8581216,25.7469304 C32.8598431,25.7502827 32.8598431,25.7532726 32.8614739,25.7562625 C32.8614739,25.7596148 32.8631954,25.7614269 32.8648262,25.7638732 L32.8624706,25.7638732 L32.8624706,25.7637826 Z M31.3046446,32.0413845 C31.105137,31.9120036 30.8741903,31.8338133 30.6298343,31.8338133 C30.432773,31.8338133 30.2281011,31.8900777 30.0458987,32.010942 L30.0458987,32.010942 C28.3240815,33.0385599 26.2990165,33.6017474 24.2883573,33.6017474 C22.7798193,33.6017474 21.2804321,33.2833689 19.9220231,32.6160786 L19.9150467,32.6127263 L19.9082515,32.6101894 C19.7033984,32.5264724 19.4700053,32.3484377 19.2154112,32.1789197 C19.0860303,32.0951121 18.9509414,32.011848 18.8009936,31.9505099 C18.6530391,31.8875408 18.4886855,31.8435078 18.3130065,31.8435078 C18.1675889,31.8435078 18.0147418,31.8760343 17.863888,31.9445301 C17.8560962,31.94752 17.8486667,31.9504192 17.8410561,31.9534091 L17.8418715,31.9534091 C17.6048544,32.0439214 17.4196621,32.2097247 17.3006099,32.4058799 C17.1763027,32.6079244 17.1152364,32.8431295 17.1152364,33.0773379 C17.1152364,33.288805 17.1651586,33.5001816 17.2684459,33.6921691 C17.36675,33.8740091 17.5179662,34.0330171 17.7158429,34.1395661 C19.6573721,35.4491402 21.9435546,36.0424079 24.2385257,36.040324 C26.3077143,36.040324 28.3894062,35.5613066 30.2427788,34.6893444 L30.2524733,34.6834552 L30.2618054,34.6783815 C30.5061614,34.5336887 30.8309727,34.4039453 31.1371198,34.2149477 C31.2885173,34.1185463 31.4364718,34.0069235 31.5633158,33.8618683 C31.6901598,33.7177191 31.7920881,33.5401374 31.8496209,33.3295763 L31.8496209,33.3286703 C31.8737213,33.2357118 31.8851372,33.1451995 31.8851372,33.0546872 C31.8851372,32.8826323 31.8428257,32.7193659 31.7726991,32.5726799 C31.6699554,32.35179 31.5017058,32.1708561 31.3046446,32.0413845 Z M17.6730783,28.8920283 C17.6764306,28.8920283 17.6808702,28.8932968 17.6846755,28.8953806 C17.9324744,28.9858929 18.1878839,29.0306507 18.4407566,29.0306507 C19.0716244,29.0306507 19.6847342,28.7722513 20.1488927,28.3511291 C20.6123265,27.9287385 20.9297084,27.3312124 20.9297084,26.65006 C20.9297084,26.6323018 20.9297084,26.6145436 20.928893,26.5934332 C20.9306144,26.5629906 20.9314298,26.5295581 20.9314298,26.4953102 C20.9314298,25.8195939 20.6183063,25.2196216 20.1593121,24.7954189 C19.6985964,24.3708538 19.0869363,24.1112766 18.4537128,24.1112766 C18.2845572,24.1112766 18.1122305,24.1311186 17.9437998,24.1704402 C17.9412629,24.1704402 17.9393602,24.1712557 17.9368233,24.1712557 C17.9368233,24.1712557 17.9351019,24.1712557 17.9342864,24.1712557 C17.0960286,24.3467535 16.3602426,24.9688329 16.0887057,25.8245771 L16.0887057,25.8245771 L16.0887057,25.8254831 C16.0887057,25.8272046 16.0878903,25.8288354 16.0878903,25.8288354 C16.0098812,26.0631345 15.9735494,26.3049536 15.9735494,26.5442358 C15.9735494,27.0685547 16.1468728,27.5794643 16.4456811,27.9996805 C16.7418619,28.4128297 17.1609002,28.737641 17.6641086,28.8893102 C17.6677328,28.8894914 17.6694542,28.8903975 17.6730783,28.8920283 Z M43.9622298,22.7767867 L43.9622298,22.7802296 C43.9682096,22.8653963 43.9698405,22.9503818 43.9698405,23.0348237 C43.9698405,23.981352 43.6662302,24.8915486 43.1597601,25.663757 C42.6869942,26.3864056 42.0350159,26.9909986 41.2840086,27.4012485 C41.3322093,27.7779753 41.360115,28.1576919 41.360115,28.5361402 C41.359209,30.5742521 40.656493,32.577663 39.4328105,34.1833273 L39.4328105,34.1841427 L39.4302736,34.1841427 C37.1680102,37.1936081 33.6939332,38.9683374 30.1859708,39.8634939 L30.1850647,39.8634939 L30.1826185,39.8655778 C28.3119407,40.31977 26.3829147,40.551804 24.4544324,40.551804 C21.5796935,40.551804 18.7072196,40.0333743 16.0267333,38.9585523 L16.0259179,38.9560154 L16.023381,38.9560154 C13.2444094,37.8105232 10.5965401,35.9897676 8.97275524,33.3219657 C8.09916223,31.8985944 7.61960117,30.2286927 7.61960117,28.5509085 C7.61960117,28.1712824 7.64524179,27.7910221 7.6959794,27.4151107 C6.96463293,27.0033206 6.33122817,26.419385 5.860818,25.7220146 C5.35869682,24.9730912 5.04031828,24.0956929 5.0000906,23.1681911 L5.0000906,23.164567 L5.0000906,23.1612147 L5.0000906,23.1537853 C5.00090603,21.8548117 5.56518079,20.624334 6.44203549,19.7170367 C7.3187996,18.8100112 8.51647912,18.2171966 9.8011374,18.2171966 C9.81889557,18.2171966 9.83665373,18.2171966 9.8544119,18.2171966 C9.98913838,18.2080457 10.1250427,18.2027907 10.2610376,18.2027907 C10.9063114,18.2027907 11.5530348,18.3072558 12.1672317,18.5427327 L12.170584,18.5452696 L12.1740269,18.5463568 C12.6983458,18.7671561 13.2193124,19.0335286 13.6836522,19.4024635 C13.8341436,19.3235484 13.9982254,19.2347576 14.1823304,19.1646309 C16.9968184,17.4979909 20.2682167,16.8550728 23.4562604,16.6696087 C23.4839849,15.0903099 23.6780563,13.4368978 24.4482714,11.9899698 C25.0897398,10.7877601 26.2031586,9.85183234 27.5287694,9.52747401 L27.5342962,9.52475593 L27.5414538,9.5239405 C28.0463837,9.42627059 28.5554813,9.38124096 29.0612266,9.38124096 C30.4084009,9.38124096 31.7395384,9.70025371 32.9852375,10.1982072 C33.5366466,9.36601968 34.3239857,8.7164876 35.2475915,8.35217341 L35.2564705,8.34709965 L35.2653496,8.34374734 C35.8074267,8.17486357 36.3800369,8.07610642 36.954731,8.07610642 C37.5610455,8.07610642 38.1721619,8.18691375 38.7446816,8.44268569 L38.7446816,8.44060182 C38.745497,8.44268569 38.746403,8.44268569 38.746403,8.44268569 C38.7506614,8.44413534 38.7540137,8.44667222 38.756913,8.44667222 C39.5776845,8.76278568 40.2724274,9.34699307 40.7650353,10.072994 C41.2580962,10.802166 41.5482066,11.6755778 41.5482066,12.573543 C41.5482066,12.7390744 41.5388745,12.9048777 41.5194855,13.0708622 L41.517764,13.0742145 C41.517764,13.0767514 41.517764,13.0803755 41.516858,13.0829124 C41.4205471,14.2434447 40.8327156,15.2616399 40.0005281,15.9879126 C39.1633575,16.7170846 38.0791128,17.1575052 36.9662376,17.1575052 C36.7877499,17.1575052 36.6076313,17.1475389 36.4283282,17.1236198 C35.3246039,17.0392685 34.2954458,16.5051645 33.5393647,15.7106678 C32.7807468,14.9174396 32.2919442,13.857567 32.2919442,12.7135244 C32.2919442,12.6581661 32.297018,12.6014486 32.2986488,12.5465433 C31.2626048,12.0851934 30.162414,11.7024868 29.0690184,11.7033929 C28.9108258,11.7033929 28.7527238,11.7120907 28.5945311,11.7281275 L28.5928097,11.7281275 C27.7742126,11.8070426 27.0130578,12.323026 26.6443041,13.0651542 L26.6443041,13.0659696 L26.6443041,13.0685065 C26.0844688,14.1588216 25.9728461,15.4333324 25.9559033,16.6984204 C29.0942966,16.9030924 32.2512635,17.6561835 35.0200876,19.2478044 L35.024346,19.2478044 L35.06403,19.2712705 C35.1164891,19.3023473 35.213706,19.3556218 35.3016814,19.4025541 C35.492038,19.2481668 35.693267,19.0894305 35.9228548,18.9526202 C36.7621999,18.3936004 37.7567477,18.1156307 38.7517486,18.1156307 C39.1931658,18.1156307 39.6350361,18.1718951 40.0637689,18.2817964 L40.0654904,18.2817964 L40.0832486,18.2870514 C40.0895908,18.2879574 40.0942115,18.2900413 40.0993759,18.2900413 L40.0993759,18.2908567 C41.1125879,18.5486219 42.0292173,19.1304736 42.7193395,19.9150946 C43.4090086,20.700984 43.8728048,21.6952601 43.9633171,22.7746122 L43.9633171,22.7768773 L43.9622298,22.7768773 L43.9622298,22.7767867 Z M34.717927,12.5059532 C34.717927,12.548446 34.718833,12.5920259 34.7230914,12.6364214 L34.7230914,12.6389582 L34.7230914,12.644032 C34.7433864,13.1892802 35.0007892,13.6967469 35.3920125,14.071571 C35.785229,14.446667 36.3071016,14.6787916 36.8364036,14.6808754 L36.8436519,14.6808754 L36.8508095,14.6808754 C36.8888627,14.6838653 36.9278219,14.6838653 36.9649691,14.6838653 C37.4994355,14.6846807 38.0297342,14.4544588 38.4280245,14.0809031 C38.8271302,13.7054448 39.090241,13.1948069 39.1113514,12.644938 L39.1121669,12.6424011 L39.1121669,12.6390488 C39.1156098,12.5970091 39.1173312,12.5572344 39.1173312,12.5142887 C39.1173312,11.9482925 38.8525896,11.4087523 38.438172,11.0091936 C38.0254759,10.6099973 37.4698084,10.3626514 36.9219328,10.364101 C36.7451665,10.364101 36.5700312,10.3882014 36.3984293,10.4414759 L36.3925401,10.4419289 L36.3874663,10.4440128 C35.9359016,10.5613435 35.5126049,10.8397662 35.2085416,11.2095165 C34.9031193,11.5775455 34.717927,12.0325531 34.717927,12.5059532 Z M11.5516757,20.9179779 C11.1321844,20.7226381 10.6983778,20.5831097 10.2696449,20.5849217 C10.1977062,20.5849217 10.1249521,20.5891801 10.053104,20.5969719 L10.0431377,20.5969719 L10.0331714,20.5982404 C9.41752479,20.6151831 8.79617022,20.8836394 8.32974657,21.3139125 C7.86296052,21.7426454 7.55427649,22.3215978 7.53053854,22.9598951 L7.53053854,22.9657843 L7.5294513,22.9710393 C7.52528357,23.0226829 7.52356212,23.0740547 7.52356212,23.1235239 C7.52356212,23.5171935 7.64433576,23.8977256 7.84909828,24.2441004 C8.0006769,24.5020468 8.19945963,24.7370707 8.42424538,24.9418332 C9.14372288,23.3664303 10.2678329,22.0294035 11.5516757,20.9179779 Z M38.8914582,28.6243874 C38.8914582,27.2200427 38.3848069,25.8094464 37.5644884,24.6737393 C35.9288345,22.3978854 33.3917726,20.9135384 30.7523294,20.0859716 L30.7337558,20.0794482 C30.2271045,19.9240643 29.7155606,19.7864385 29.1995772,19.6686548 C27.6570631,19.317478 26.0755898,19.1426144 24.4957473,19.1426144 C22.3743714,19.1426144 20.253086,19.4565534 18.2219506,20.0829818 C15.5831416,20.9204242 13.037563,22.3942613 11.4056239,24.677454 L11.4056239,24.6791754 C10.5785101,25.8195939 10.0941471,27.2349016 10.0941471,28.6442294 C10.0941471,29.1631121 10.1590188,29.6819043 10.2961916,30.1867435 L10.297913,30.1876495 C10.5949093,31.3209104 11.1757644,32.3323104 11.9277683,33.2131516 C12.6793192,34.0960767 13.6013847,34.8492585 14.571198,35.4636367 C14.7860175,35.5968229 15.0016523,35.7236669 15.2223609,35.8475211 C18.039567,37.4200247 21.2835126,38.1093315 24.5041733,38.1093315 C25.0488779,38.1093315 25.5968441,38.0899424 26.1380151,38.0509832 C29.3813266,37.7828893 32.6380472,36.8255792 35.2707858,34.869463 L35.2716918,34.8673791 C36.1097685,34.2479272 36.886054,33.4981883 37.5000698,32.6453434 C38.1166224,31.7920454 38.5681871,30.8380876 38.7686913,29.8020437 L38.7686913,29.7990538 L38.7695068,29.7981478 C38.8516836,29.4112734 38.8914582,29.0185099 38.8914582,28.6243874 Z M41.4513521,23.0355485 C41.4505367,22.6947005 41.3727088,22.3553927 41.2019224,22.0389168 L41.197664,22.0349303 L41.1959426,22.0298565 C40.9675327,21.5596276 40.6089265,21.2044642 40.1768413,20.9623733 C39.7446656,20.7186516 39.2389203,20.594888 38.7315441,20.594888 C38.2728217,20.594888 37.816455,20.6974505 37.4114601,20.9010352 C38.6994707,22.0194372 39.8293793,23.363531 40.5595479,24.9451855 C40.7946624,24.7405136 40.9951666,24.4905402 41.145205,24.2127518 C41.3406354,23.8482564 41.4513521,23.4391844 41.4513521,23.0355485 Z" id="shape"></path>
        </g>
    </g>
</svg>