<?xml version="1.0" encoding="UTF-8" standalone="no"?>
<svg width="50px" height="50px" viewBox="0 0 50 50" version="1.1" xmlns="http://www.w3.org/2000/svg" xmlns:xlink="http://www.w3.org/1999/xlink">
    <!-- Generator: Sketch 45.2 (43514) - http://www.bohemiancoding.com/sketch -->
    <title>icon-instagram</title>
    <desc>Created with Sketch.</desc>
    <defs></defs>
    <g id="Page-1" stroke="none" stroke-width="1" fill="none" fill-rule="evenodd">
        <g id="icon-instagram" fill-rule="nonzero" fill="#000000">
            <path d="M33.2191721,5 L15.7554961,5 C9.82491914,5 5,9.82514968 5,15.7557266 L5,33.2194026 C5,39.1502101 9.82491914,43.9751292 15.7554961,43.9751292 L33.2191721,43.9751292 C39.1502101,43.9751292 43.9751292,39.1499795 43.9751292,33.2194026 L43.9751292,15.7557266 C43.9753598,9.82514968 39.1502101,5 33.2191721,5 Z M40.5172974,33.2194026 C40.5172974,37.2434345 37.2434345,40.5170669 33.2194026,40.5170669 L15.7554961,40.5170669 C11.7316947,40.5172974 8.45806236,37.2434345 8.45806236,33.2194026 L8.45806236,15.7557266 C8.45806236,11.7319253 11.7316947,8.45806236 15.7554961,8.45806236 L33.2191721,8.45806236 C37.243204,8.45806236 40.5170669,11.7319253 40.5170669,15.7557266 L40.5170669,33.2194026 L40.5172974,33.2194026 Z M24.4875646,14.445121 C18.9498235,14.445121 14.4446599,18.9502846 14.4446599,24.4880257 C14.4446599,30.0255362 18.9498235,34.5304693 24.4875646,34.5304693 C30.0253057,34.5304693 34.5304693,30.0255362 34.5304693,24.4880257 C34.5304693,18.9502846 30.0253057,14.445121 24.4875646,14.445121 Z M24.4875646,31.0721764 C20.8568297,31.0721764 17.9027223,28.1185301 17.9027223,24.4877951 C17.9027223,20.8568297 20.8565991,17.9029528 24.4875646,17.9029528 C28.1185301,17.9029528 31.0724069,20.8568297 31.0724069,24.4877951 C31.0724069,28.1185301 28.1182995,31.0721764 24.4875646,31.0721764 Z M34.9516613,11.5129146 C34.285408,11.5129146 33.630912,11.7826435 33.160385,12.2552454 C32.6875526,12.7255418 32.4157489,13.3802683 32.4157489,14.048827 C32.4157489,14.7153109 32.6877831,15.3698069 33.160385,15.8424087 C33.6306815,16.3127052 34.285408,16.5847394 34.9516613,16.5847394 C35.62022,16.5847394 36.2726411,16.3127052 36.745243,15.8424087 C37.2178448,15.3698069 37.4875737,14.7150804 37.4875737,14.048827 C37.4875737,13.3802683 37.2178448,12.7255418 36.745243,12.2552454 C36.2749465,11.7826435 35.62022,11.5129146 34.9516613,11.5129146 Z" id="shape"></path>
        </g>
    </g>
</svg>