<?xml version="1.0" encoding="UTF-8" standalone="no"?>
<svg width="50px" height="50px" viewBox="0 0 50 50" version="1.1" xmlns="http://www.w3.org/2000/svg" xmlns:xlink="http://www.w3.org/1999/xlink">
    <!-- Generator: Sketch 45.2 (43514) - http://www.bohemiancoding.com/sketch -->
    <title>icon-email</title>
    <desc>Created with Sketch.</desc>
    <defs></defs>
    <g id="Page-1" stroke="none" stroke-width="1" fill="none" fill-rule="evenodd">
        <g id="icon-email" fill-rule="nonzero" fill="#000000">
            <path d="M40.8333333,12 L9.16666667,12 C6.87,12 5,13.87 5,16.1666667 L5,34.5 C5,36.7966667 6.87,38.6666667 9.16666667,38.6666667 L40.8333333,38.6666667 C43.13,38.6666667 45,36.7966667 45,34.5 L45,16.1666667 C45,13.87 43.13,12 40.8333333,12 Z M19.7,26.8066667 L9.7,35.14 C9.545,35.27 9.355,35.3333333 9.16666667,35.3333333 C8.92666667,35.3333333 8.69,35.2316667 8.525,35.0333333 C8.23,34.68 8.27833333,34.1533333 8.63166667,33.8583333 L18.6316667,25.525 C18.985,25.2316667 19.5116667,25.28 19.8066667,25.6316667 C20.1016667,25.9866667 20.0533333,26.5133333 19.7,26.8066667 Z M25,27.0283333 C24.0833333,27.0283333 23.165,26.755 22.365,26.2066667 L8.69666667,16.855 C8.31666667,16.595 8.22,16.0766667 8.47833333,15.6966667 C8.73666667,15.3166667 9.255,15.2183333 9.63666667,15.48 L23.305,24.8316667 C24.3333333,25.535 25.6633333,25.535 26.6933333,24.8316667 L40.3616667,15.48 C40.7433333,15.2216667 41.2616667,15.3166667 41.52,15.6966667 C41.78,16.0766667 41.6833333,16.595 41.3033333,16.855 L27.635,26.2066667 C26.835,26.755 25.9166667,27.0283333 25,27.0283333 Z M41.4733333,35.0333333 C41.3083333,35.2316667 41.0716667,35.3333333 40.8333333,35.3333333 C40.645,35.3333333 40.4566667,35.27 40.3,35.14 L30.3,26.8066667 C29.9466667,26.5116667 29.8983333,25.9866667 30.1933333,25.6316667 C30.4883333,25.28 31.0133333,25.2316667 31.3683333,25.525 L41.3683333,33.8583333 C41.72,34.1533333 41.7683333,34.68 41.4733333,35.0333333 Z" id="shape"></path>
        </g>
    </g>
</svg>