<?xml version="1.0" encoding="UTF-8" standalone="no"?>
<svg width="50px" height="50px" viewBox="0 0 50 50" version="1.1" xmlns="http://www.w3.org/2000/svg" xmlns:xlink="http://www.w3.org/1999/xlink">
    <!-- Generator: Sketch 43.1 (39012) - http://www.bohemiancoding.com/sketch -->
    <title>icon-youtube</title>
    <desc>Created with Sketch.</desc>
    <defs></defs>
    <g id="Page-1" stroke="none" stroke-width="1" fill="none" fill-rule="evenodd">
        <g id="icon-youtube" fill-rule="nonzero" fill="#000000">
            <g id="YouTube-Icon" transform="translate(10.000000, 13.000000)">
                <path d="M26.1,1.8 L19.5,1.2 C16.6,0.9 13.4,0.9 10.5,1.2 L3.9,1.8 C1.7,2 0,3.8 0,6 L0,18 C0,20.2 1.7,22 3.9,22.2 L10.5,22.8 C11.9,22.9 13.5,23 15,23 C16.5,23 18.1,22.9 19.5,22.8 L26.1,22.2 C28.3,22 30,20.2 30,18 L30,6 C30,3.8 28.3,2 26.1,1.8 L26.1,1.8 Z M20.7,11.9 L11.7,16.9 C11.6,16.9 11.5,17 11.5,17 C11.4,17 11.3,17 11.2,16.9 C11,16.8 11,16.6 11,16.5 L11,6.5 C11,6.3 11.1,6.2 11.2,6.1 C11.4,6 11.5,6 11.7,6.1 L20.7,11.1 C20.9,11.2 21,11.4 21,11.5 C21,11.6 20.9,11.8 20.7,11.9 Z" id="Shape"></path>
            </g>
        </g>
    </g>
</svg>