<?xml version="1.0" encoding="utf-8"?>
<!-- Generator: Adobe Illustrator 16.0.0, SVG Export Plug-In . SVG Version: 6.00 Build 0)  -->
<!DOCTYPE svg PUBLIC "-//W3C//DTD SVG 1.1//EN" "http://www.w3.org/Graphics/SVG/1.1/DTD/svg11.dtd">
<svg version="1.1" id="Layer_1" xmlns="http://www.w3.org/2000/svg" xmlns:xlink="http://www.w3.org/1999/xlink" x="0px" y="0px"
	 width="573.312px" height="521.277px" viewBox="17.981 61.095 573.312 521.277"
	 enable-background="new 17.981 61.095 573.312 521.277" xml:space="preserve">
<g>
	<path d="M347.469,245.674c-13.354,0-25.881,5.196-35.318,14.633c-9.437,9.437-14.633,21.977-14.633,35.318
		c0,13.348,5.196,25.894,14.633,35.318c9.431,9.437,21.971,14.639,35.318,14.639s25.888-5.202,35.319-14.639
		c19.479-19.474,19.485-51.163,0-70.643C373.363,250.864,360.816,245.674,347.469,245.674z M365.67,313.821
		c-4.859,4.859-11.328,7.534-18.201,7.534c-6.872,0-13.341-2.675-18.2-7.54c-4.859-4.853-7.534-11.322-7.534-18.195
		c0-6.873,2.681-13.335,7.534-18.201c4.859-4.853,11.328-7.534,18.2-7.534c6.873,0,13.342,2.681,18.195,7.534
		C375.707,287.462,375.707,303.79,365.67,313.821z"/>
	<path d="M579.405,70.281c-6.011-6.01-13.648-9.186-22.105-9.186c-25.502,0-55.209,27.797-97.62,70.215
		c-27.491,27.491-52.742,52.742-62.491,74.878l-44.364-44.364c-3.005-3.011-7.368-4.223-11.5-3.188l-68.507,17.13
		c-2.13,0.532-4.076,1.634-5.63,3.188L23.127,423.008c-2.57,2.576-3.696,6.01-3.47,9.376c-2.711,4.602-2.129,10.568,1.708,14.547
		c107.896,111.947,173.931,135.441,210.326,135.441c13.586,0,22.846-3.164,28.605-6.113c2.521-0.349,4.957-1.444,6.885-3.385
		l196.966-196.966c1.549-1.548,2.656-3.495,3.189-5.63l17.136-68.514c1.028-4.125-0.178-8.488-3.188-11.5l-33.966-33.96
		c27.552-5.489,60.924-25.63,90.655-55.355C587.832,151.09,605.256,96.138,579.405,70.281z M231.691,558.149
		c-19.174,0-56.702-9.07-118.318-58.771c25.166,9.945,53.256,17.351,81.102,17.351c10.171,0,19.976-1.004,29.296-2.999
		c0.306,13.005,2.767,30.569,12.216,44.266C234.659,558.095,233.227,558.149,231.691,558.149z M444.643,361.159L258.527,547.286
		c-14.144-14.773-9.921-47.748-9.866-48.085c0.63-4.247-1.028-8.507-4.357-11.199c-3.341-2.705-7.858-3.445-11.86-1.934
		c-11.463,4.271-24.235,6.456-37.969,6.456c-61.016,0-126.543-41.983-148.918-57.693l236.385-236.385l58.605-14.651l59.069,59.077
		c1.017,1.297,2.105,2.583,3.36,3.843c1.102,1.096,2.283,2.087,3.513,3.029l52.81,52.81L444.643,361.159z M432.978,233.655
		c-4.571,0-8.183-0.863-10.838-2.521l-2.987-2.986c-8.488-13.507,28.006-50.074,57.65-79.713
		c26.641-26.64,63.122-63.115,80.497-63.115c2.08,0,3.476,0.587,4.981,2.093c13.274,13.274-0.208,55.19-41.438,96.415
		C486.424,218.245,451.919,233.655,432.978,233.655z"/>
</g>
</svg>
