<?xml version="1.0" encoding="UTF-8" standalone="no"?>
<svg width="1099px" height="1067px" viewBox="0 0 1099 1067" version="1.1" xmlns="http://www.w3.org/2000/svg">
    <!-- Generator: Sketch 3.7.1 (28215) - http://www.bohemiancoding.com/sketch -->
    <title>Perversion Icon</title>
    <desc>Created with Sketch.</desc>
    <defs></defs>
    <g id="Page-1" stroke="none" stroke-width="1" fill="none" fill-rule="evenodd">
        <g id="Perversion-Icon">
            <path d="M396.688477,843.963867 C396.688476,847.687488 398.157227,869.993167 401.26123,870.964358 C404.365234,871.93555 413.536133,866.612316 417.944336,866.612305 C422.352539,866.612293 436.161133,871.951183 436.161133,874.786133 C436.161133,877.621082 440.166992,909.166027 440.166992,912.250977 C440.166992,915.335926 441.847656,916.812512 444.682617,916.8125 C447.517578,916.812488 467.958008,911.688488 472.268555,911.688477 C476.579101,911.688465 499.246094,920.979504 499.246094,923.738281 C499.246094,926.497059 504.669922,949.819821 507.246094,950.688477 C509.822266,951.557132 514.415154,947.49666 521.30957,945.874026 C528.545679,944.170974 537.070241,944.033209 540.216797,944.033203 C546.361328,944.033192 555.401367,948.841808 559.548828,948.841797 C563.696289,948.841785 562.637207,955.43262 564.539062,958.880374 C566.440918,962.328128 564.772461,970.253415 568.702148,971.764648 C571.145442,972.704262 578.953125,966.717837 582.303223,966.1543 C585.65332,965.590762 589.200941,964.090828 590.934082,964.090823 C595.516113,964.090812 622.900055,955.426769 626.902344,955.426758 C630.904632,955.426746 637.566406,956.621105 637.566406,961.203125 C637.566406,964.283133 636.242555,971.11897 634.788574,975.77381 C634.079519,978.04381 632.658203,978.6447 632.658203,980.25684 C632.658203,982.25599 635.500545,983.26716 636.546875,984.98731 C638.07454,987.49876 638.336886,990.3545 641.526367,990.35449 C644.66377,990.35448 660.75393,963.545598 678.951172,948.841797 C691.92379,938.359615 707.902495,938.526372 712.236328,938.526367 C722.649414,938.526356 734.78711,937.187512 734.787109,940.610352 C734.787109,944.033192 729.628906,952.008801 729.628906,955.47168 C729.628906,958.934559 728.59668,961.258801 731.007812,961.258789 C732.360296,961.258783 743.419279,940.174251 757.191406,925.453125 C767.971468,913.930239 782.114566,909.155281 785.790039,909.155276 C794.161133,909.155265 803.073242,909.976574 803.073242,912.745117 C803.073242,915.51366 801.847656,917.229504 804.431641,917.229492 C805.950897,917.229485 812.668279,901.677509 823.611328,891.794922 C831.28046,884.868986 843.206903,883.577644 846.056641,883.57764 C852.972656,883.577628 856.681394,887.470031 858.523437,887.110352 C861.924316,886.446292 866.476042,867.253216 877.481445,854.496097 C885.511328,845.188107 898.326692,838.971199 901.262695,838.971194 C908.222656,838.971183 908.21875,840.155285 912.366211,840.155273 C916.513672,840.155262 916.78125,834.39649 916.78125,831.226565 C916.78125,823.905279 920.458938,811.304492 930.522034,795.53949 C939.239609,781.882401 952.317383,772.195318 958.866211,772.187503 C965.415039,772.179687 972.432617,774.442394 973.985352,774.442383 C975.538086,774.442371 974.40918,772.336926 974.40918,770.610352 C974.409179,768.883778 970.958985,752.163097 970.958984,748.003906 C970.958984,745.810092 972.451786,722.970584 980.2207,707.961914 C987.18066,694.516069 1000.50586,691.514163 1000.50586,687.111331 C1000.50586,682.708499 991.64746,678.10303 991.64746,671.727539 C991.64746,668.338088 990.81006,662.769848 990.81006,657.472171 C990.81006,652.805021 991.64746,648.280961 991.64746,646.581055 C991.64746,643.282932 993.78844,630.421292 1000.50586,619.945312 C1007.41513,609.170132 1018.90625,600.79833 1018.90625,599.146484 C1018.90625,597.375182 1007.63405,592.101284 1002.00537,581.32471 C997.28164,572.280732 997.32812,556.131848 997.32812,552.074222 C997.32812,547.56979 999.63524,533.963587 1003.37402,526.244629 C1007.0163,518.724924 1012.80664,518.706437 1012.80664,516.118164 C1012.80664,513.647717 1007.08594,506.775397 1005.979,502.132815 C1004.87207,497.490234 1003.37402,476.89816 1003.37402,474.382812 C1003.37402,472.40795 1002.74533,461.558133 1006.52979,452.764163 C1011.8572,440.384807 1022.13574,429.206757 1022.13574,427.542969 C1022.13574,426.002492 1007.61963,421.536624 1002.00537,409.305667 C996.39111,397.07471 995.42871,387.135256 995.42871,376.494141 C995.42871,365.129585 994.86312,357.545795 997.32812,349.090335 C999.89531,340.284382 1005.49609,330.800305 1005.43652,328.836914 C1005.38382,327.099839 973.423322,330.505383 958.037109,317.876953 C941.930895,304.657573 941.154785,278.204105 941.154785,266.480472 C941.154785,258.364313 945.244133,248.288887 948.291992,241.886233 C949.646706,239.040378 951.488281,236.874376 951.488281,236.006836 C951.488281,233.187488 951.488281,232.456058 949.761719,232.456055 C948.035156,232.456052 923.704672,236.365431 909.575195,221.164554 C895.452379,205.970843 891.599609,177.483395 891.599609,169.420898 C891.599609,161.358401 895.930176,153.667969 894.541992,151.269534 C893.153809,148.8711 856.610352,164 836.548828,164.073242 C828.826041,164.101437 815.211857,162.973179 808.621765,156.08046 C798.09274,145.067926 798.860352,104.378906 794.22168,104.378906 C789.583008,104.378906 771.162109,107.513672 762.983398,107.524417 C754.804688,107.535162 732.274414,105.988773 720.079102,94.087405 C713.678779,87.84135 714.422852,83.40137 707.273438,75.925296 C700.124023,68.4492217 698.814941,70.1841918 693.279297,64.0874053 C687.743652,57.9906188 685.076577,52.3196133 682.939453,52.2470703 C677.185547,52.0517586 663.058594,58.8505859 663.058594,62.3037109 C663.058594,65.7568359 664.274414,69.578125 664.274414,72.1621094 C664.274414,74.746094 654.427735,88.78418 648.683594,88.78418 C642.939453,88.78418 630.391602,85.776367 626.199219,85.776367 C622.006836,85.776367 593.59961,76.938477 588.789062,76.938477 C583.978515,76.938477 553.248047,52.4423828 545.268555,52.4423828 C537.289062,52.4423828 521.309571,65.6376953 521.30957,71.2880859 C521.30957,76.178644 516.83136,85.75293 504.211757,85.475615 C491.592154,85.198301 481.126697,88.276717 464.802734,85.75293 C445.256794,82.731005 425.135899,74.751953 422.083008,74.751953 C416.480469,74.751953 408.510742,81.489258 408.510742,85.136719 C408.510742,88.78418 409.260742,87.459961 409.260742,90.652344 C409.260742,93.844727 387.132813,107.524414 382.040039,107.524414 C376.947265,107.524414 370.000977,109.792969 367.839844,109.792969 C365.678711,109.792969 358.946289,114.982422 355.938477,114.982422 C352.930664,114.982422 326.931641,134.429687 323.989258,134.429687 C321.046875,134.429687 313.825195,135.885742 313.825195,138.556641 C313.825195,141.227539 315.920898,146.676758 315.920898,151.269531 C315.920898,155.862305 314.443359,162.256836 309.427734,162.256836 C304.412109,162.256836 242.818359,216.55957 242.818359,224.507812 C242.818359,232.456055 243.655273,222 243.655273,235.203125 C243.655273,238.682617 228.157227,260.62793 210.658203,260.62793 C203.375977,260.62793 202.229492,262.768555 200.755859,266.304687 C199.282227,269.84082 198.09375,270.27832 193.936523,270.27832 C189.779297,270.27832 186.53125,269.84082 186.53125,285.736328 C186.53125,291.933168 181.076863,296.616094 178.384766,301.295898 C174.171366,308.620256 171.80518,314.425781 169.979492,314.425781 C168.206039,314.425781 162.362305,314.699219 162.362305,322.831055 C162.362305,326.052734 160.023225,324.918722 159.751953,326.052734 C159.085938,328.836914 163.696289,335.310547 163.696289,339.837891 C163.696289,361.810547 150.549805,377.004883 150.549805,380.392578 C150.549805,383.780273 139.206055,385.645508 139.206055,394.779297 C139.206055,403.913086 140.862305,401.041992 140.862305,406.158203 C140.862305,430.074219 118.790039,454.374023 117.248047,458.792969 C116.716844,460.315256 114.479492,472.05957 114.479492,472.05957 C114.479492,472.05957 104.977539,497.985948 104.977539,499.97168 C104.977539,503.000977 100.483398,514.551758 100.483398,521.130859 C100.483398,524.73169 99.752227,530.712252 97.378906,535.080078 C95.415918,538.692736 91.732422,540.644243 91.732422,544.206055 C91.732422,552.074219 91.411806,563.166102 89.665039,570.390625 C88.63472,574.651962 85.782227,574.389539 85.782227,576.307617 C85.782227,581.477539 86.912109,580.378906 96.792969,580.378906 C103.807617,580.378906 119.349609,606.761719 119.349609,615.469727 C119.349609,624.177734 117.248047,622.560547 117.248047,636.556641 C117.248047,650.552734 171.59082,693.893555 172.805664,740.583008 C173.042127,749.670878 173.952842,760.249189 163.696289,773.234375 C157.896484,780.577148 149.494141,776.681641 149.801758,771.410156 C150.49649,759.504876 156.551758,757.442383 156.551758,747.308594 C156.551758,737.174805 140.862305,707.961914 123.602539,707.961914 C120.583984,707.961914 119.349609,736.879883 119.349609,740.583008 C119.349609,744.286133 111.663086,758.733398 111.782227,773.234375 C111.901367,787.735352 130.083984,817.638672 133.767578,821.329102 C137.451172,825.019531 153.662196,832.622976 160.417969,835.953125 C179.973633,845.592773 195.373047,855.791016 205.524414,867.054687 C215.675781,878.318359 230.873047,894.826172 230.873047,913.811523 C230.873047,932.796875 217.620117,940.646484 217.620117,955.125977 L217.620117,964.09082 C217.620117,966.338867 218.368164,970.982422 211.898437,978.26074 C208.725317,981.83044 193.936523,991.2793 182.949219,996.11328 C171.961914,1000.94727 155.486006,1000.39844 150.549805,1000.39844 C140.862305,1000.39844 131.912143,990.49805 130.615234,990.49805 C128.486328,990.49805 108.890625,991.2793 108.890625,977.37305 C108.890625,972.016602 108.890625,972.016602 113.375,971.835937 C150.588035,970.336719 175.504562,954.30957 176.483398,927.165039 C176.988181,913.166682 166.987305,878.318359 127.56543,878.318359 C88.143555,878.318359 58.4667969,859.927734 33.890625,817.87207 C9.3144531,775.816406 0.2558594,717.827225 0.2558594,695.426758 C0.2558594,650.058594 21.4852676,613.158936 43.4379463,596.768921 C50.385459,591.581862 50.0486336,589.628909 55.3725281,589.628909 C59.5997963,589.628909 72.9492188,579.190266 72.9492188,576.623047 C72.9492188,569.225162 63.3489914,572.236514 63.2998505,556.500003 C63.2770339,549.193396 66.3460922,547.28034 66.3460922,541.574893 C66.3460922,535.869446 62.6429358,532.729543 65.390625,526.244629 C68.1419568,519.751118 76.3886719,515.239017 76.3886719,511.949219 C76.3886719,508.659421 69.0439453,489.167969 69.0439453,484.141602 C69.0439453,479.115234 72.0566406,466.803711 74.2226563,466.803711 C76.3886719,466.803711 76.578125,472.05957 79.4990234,472.05957 C82.419922,472.05957 82.52832,467.380859 82.52832,461.419922 C82.52832,455.458984 77.1650391,452.439365 77.1650391,443.647461 C77.1650391,434.855557 74.4469032,423.060234 79.4990234,412.403412 C84.274067,402.33105 97.378906,397.488333 97.378906,394.544922 C97.378906,388.487305 96.041061,389.369113 96.041061,370.459201 C96.041061,361.069826 98.706779,354.533084 98.706774,350.68547 C98.706769,346.837856 101.807002,344.926211 102.571861,344.926211 C109.504402,344.926211 115.706055,339.772196 115.706055,335.310547 C115.706055,328.836914 111.782227,309.164062 111.782227,306.232422 C111.782227,303.300781 116.938477,280.199219 120.814453,280.199219 C124.69043,280.199219 129.620117,285.736328 133.767578,285.736328 C137.915039,285.736328 137.451172,284.56445 137.451172,269.84082 C137.451172,255.11719 149.494141,237.716797 149.494141,234.577148 C149.494141,231.4375 146.739258,228.234375 150.549805,228.234375 C154.360352,228.234375 159.36731,233.187488 161.006958,233.187488 C162.646606,233.187488 166.326965,225.987308 169.319153,225.987308 C172.31134,225.987308 180.513672,222.047852 180.513672,219.397461 C180.513672,216.74707 177.663406,216.123675 177.663406,210.705081 C177.663406,204.019003 204.817871,151.269534 210.658203,151.269534 C216.498535,151.269534 217.081802,164.000003 221.913834,164.000003 C223.586965,164.000003 239.25264,159.604175 245.568069,147.338443 C263.475091,112.559696 264.1875,116.494138 283.417969,95.623047 C302.648438,74.751956 330.644592,70.1841918 338.089722,70.1841918 C345.534851,70.1841918 348.737305,78.792969 350.636719,78.792969 C352.52655,78.792969 385.996307,15.6610545 432.591303,15.6610547 C442.491913,15.6610547 454.382568,14.4202539 460.98938,24.3425552 C473.030065,42.4256055 466.071768,38.8116122 481.94397,27.564912 C515.264709,3.9545542 550.318692,0.0108672 558.617737,0.0108672 C572.421448,0.0108672 585.544983,6.0684695 600.562378,6.0684695 C615.579773,6.0684695 617.718872,21.3417969 621.046021,21.3417969 C624.373169,21.3417969 642.974609,9.1494141 662.99707,9.1494141 C683.019531,9.1494141 689.534729,10.5639458 715.023804,21.3417969 C740.512878,32.119648 748.491211,45.431633 753.022461,54.1652489 C755.118392,58.2049849 757.191406,56.0441551 757.191406,54.1652489 C757.191406,52.2863426 753.022461,41.0224609 753.022461,39.0927734 C753.022461,37.1630859 760.480469,33.0029297 774.473633,33.0029297 C788.466797,33.0029297 796.933161,37.9891001 814.076233,55.2089806 C826.034807,67.2211343 841.147705,93.63475 842.895142,99.571381 C844.642578,105.508011 849.963865,104.378906 850.538879,104.378906 C853.742004,104.378906 846.056641,87.90332 846.056641,85.75293 C846.056641,83.602539 854.697266,82.734375 856.610352,82.734375 C857.60981,82.734375 879.675354,85.01399 896.539795,95.623047 C911.955963,105.321026 917.528137,118.317131 923.526062,125.370491 C929.523987,132.423851 935.660156,156.616211 935.660156,160.091797 C935.660156,163.567383 933.839844,164 937.366211,164 C938.999668,164 962.016274,165.025119 980.2207,180.052734 C1001.31667,197.46729 1017.31146,223.125992 1017.31146,240.10202 C1017.31146,257.078049 1016.7959,258.230469 1018.90625,258.230469 C1024.68665,258.230469 1033.64374,258.659147 1044.3822,266.480469 C1057.04208,275.701249 1068.38354,292.168945 1071.10242,300.5914 C1073.82129,309.013855 1077.58753,318.136986 1073.41797,335.310547 C1068.88471,353.982107 1050.89941,367.153015 1050.89941,371.331879 C1050.89941,375.510742 1063.76593,381.808533 1074.47559,396.207672 C1086.78301,412.755004 1097.6193,433.898971 1097.99866,444.769745 C1098.09406,447.503551 1098.88485,452.914607 1097.28918,457.620361 C1094.79138,464.986583 1089.16386,471.049477 1085.43506,475.38916 C1082.76188,478.500276 1081.93701,481.850805 1079.84888,483.222534 C1077.24502,484.933054 1073.65589,484.478976 1073.41797,487.222656 C1073.23317,489.353734 1077.35731,494.73969 1080.78906,501.323334 C1085.31871,510.013245 1089.50366,520.564595 1089.50366,526.244629 C1089.50366,536.227966 1086.2975,544.486335 1080.78906,552.074219 C1072.61623,563.332325 1058.08105,568.220276 1057.44495,576.623047 C1057.18249,580.09 1061.27194,581.079788 1063.03552,583.480774 C1065.54629,586.899 1067.10448,591.049683 1068.38354,591.049683 C1070.56104,591.049683 1075.22266,590.289062 1075.22266,583.480774 C1075.22266,576.672485 1077.37511,568.24193 1077.6582,570.390625 C1078.16334,574.224646 1082.3857,577.444745 1086.07983,582.767883 C1090.95416,589.791634 1095.49927,599.269859 1095.2168,606.703125 C1094.35283,629.438483 1075.06812,650.858026 1074.47559,651.364258 C1070.82812,654.480469 1059.24988,663.754333 1059.24988,667.447693 C1059.24988,671.141052 1072.98926,681.274414 1072.98926,688.350586 C1072.98926,691.809321 1079.85193,707.439575 1079.84888,715.644592 C1079.84583,723.849609 1074.88123,738.876282 1064.7179,738.876282 C1060.76348,738.876282 1056.45569,747.308594 1051.95837,748.003906 C1047.46106,748.699219 1036.61133,753.560741 1036.61133,756.993958 C1036.61133,762.61377 1042.89111,774.442383 1042.89111,785.884338 C1042.89111,797.326294 1039.80957,803.76532 1028.91064,816.396851 C1018.01172,829.028381 999.02493,842.223633 997.32812,842.223633 C994.21191,842.223633 984.08301,847.726562 984.08301,850.734375 C984.08301,853.742187 986.62305,866.398437 986.62305,869.993164 C986.62305,871.418311 989.51108,889.492737 971.985229,904.264709 C954.459374,919.036682 936.84082,921.433594 927.874329,921.433594 C918.907837,921.433594 914.822266,918.762695 912.834961,918.762695 C910.847656,918.762695 904.512512,959.398132 898.222656,959.398132 C895.496848,959.398132 894.660156,962.624023 891.599609,965.590759 C888.539062,968.557495 882.066746,971.835937 875.515625,971.835937 C863.954163,971.835937 866.484314,975.7738 858.523438,975.7738 C850.562561,975.7738 846.609375,969.605469 844.642578,969.605469 C842.675781,969.605469 841.133789,974.69824 841.133789,978.67187 C841.133789,980.3104 841.106486,990.26011 836.548828,996.11328 C830.05357,1004.45481 817.888306,1009.10352 814.076233,1009.10352 C807.451477,1009.10352 811.565552,1004.53223 804.636719,1004.53223 C801.521767,1004.53223 793.485901,1009.10352 788.466797,1009.10352 C783.447693,1009.10352 778.043017,1011.13867 776.379883,1011.13867 C773.358398,1011.13867 771.990967,1009.10352 770.339539,1011.13867 C768.68811,1013.17383 771.48053,1012.6106 769.159607,1015.95111 C766.838684,1019.29163 763.125549,1024.0401 761.240173,1026.05762 C759.354797,1028.07513 758.838196,1026.05762 756.020386,1028.50781 C753.202576,1030.95801 751.416989,1033.68457 748.491211,1033.68457 L729.628906,1033.68457 C724.470703,1033.68457 722.26304,1036.56055 720.079102,1036.56055 C714.629517,1036.56055 707.322266,1028.50781 700.124023,1028.50781 C695.076172,1028.50781 695.076172,1032.77246 695.076172,1035.28125 C695.076172,1037.79004 686.280273,1049.18994 682.396484,1053.04297 C680.276909,1055.14576 671.177734,1061.92603 664.825915,1061.92607 C658.474096,1061.92612 651.934769,1066.38037 648.683594,1066.38037 C641.526367,1066.38037 632.658203,1060.24414 623.242188,1060.24414 C613.826172,1060.24414 622.269531,1065.35254 601.338867,1065.35254 C580.408203,1065.35254 569.256836,1053.9209 562.751953,1053.9209 C556.24707,1053.9209 546.776367,1042.97559 542.460449,1041.40967 C538.144531,1039.84375 533.694744,1030.37891 532.708008,1030.37891 C529.925781,1030.37891 528.464355,1032.53516 528.464355,1039.84375 C528.464355,1047.15234 518.626465,1050.87695 509.822266,1050.87695 C501.018066,1050.87695 484.644043,1042.09961 472.268555,1028.50781 C459.893066,1014.91602 460.608887,1000.99805 451.611328,1000.99805 C442.61377,1000.99805 430.310547,991.65967 426.644531,991.65967 C420.361328,991.65967 408.510742,980.25684 408.510742,974.05225 C408.510742,967.847656 395.871094,958.714355 395.871094,954.30957 C395.871094,949.29582 393.049316,927.76416 390.605469,924.773437 C388.161621,921.782715 386.819986,921.433594 385.285156,921.433594 C379.774414,921.433594 379.364228,925.132766 371.987305,925.453125 C357.842773,926.067383 346.533203,900.880859 346.533203,896.601562 C346.533203,892.322266 349.475586,889.976562 349.475586,884.147461 C349.475586,878.318359 344.449219,876.669922 344.449219,868.546875 C344.449219,860.423828 343.361328,867.054687 334.182129,867.054687 C325.00293,867.054687 315.943359,836.341797 315.943359,834.080078 C315.943359,831.818359 317.59375,833.180664 317.59375,817.87207 C317.59375,802.563477 396.688477,840.240246 396.688477,843.963867 L396.688477,843.963867 Z" id="hair" fill="#C7C7C7"></path>
            <g id="%%" transform="translate(19.000000, 93.000000)" font-size="761.704682" font-family="AmericanTypewriter, American Typewriter" fill="#000000" font-weight="normal">
                <text id="%-2">
                    <tspan x="449.543986" y="689">%</tspan>
                </text>
                <text id="%-1" transform="translate(305.728007, 440.000000) scale(-1, 1) translate(-305.728007, -440.000000) ">
                    <tspan x="0" y="689">%</tspan>
                </text>
            </g>
        </g>
    </g>
</svg>
