<?xml version="1.0" encoding="utf-8"?>
<!-- Generator: Adobe Illustrator 19.2.1, SVG Export Plug-In . SVG Version: 6.00 Build 0)  -->
<svg version="1.1" id="Layer_1" xmlns="http://www.w3.org/2000/svg" xmlns:xlink="http://www.w3.org/1999/xlink" x="0px" y="0px"
	 viewBox="0 0 88.1 90" style="enable-background:new 0 0 88.1 90;" xml:space="preserve">
<path d="M60.1,15.8l6-6c1.1-1.1,1.1-2.9,0-4.1c-1.1-1.1-3-1.1-4.1,0l-6.5,6.9c-0.5,0.5-0.4,1.3-0.4,2v5.6c-5-4-11-6.6-17-7.6V2.9
	c0-1.6-1.4-2.9-3-2.9c-1.6,0-3,1.3-3,2.9v9.3c-5,0-10,1.3-14,3.5v-2.1c0-0.8-0.4-1.5-1-2l-7-6.9C9,3.6,7.1,3.6,6,4.7
	C5.5,5.3,5.2,6,5.2,6.8c0,0.7,0.3,1.5,0.8,2l6.1,6v4.6C5.1,25.1,0.5,34,0,43h60.1V15.8z"/>
<path d="M38.1,87.1v-10c6-1.2,12-4.4,17-8.2v6.4c0,0.8-0.1,1.5,0.4,2l6.7,6.9c1.1,1.1,2.8,1.1,4,0c1.1-1.1,1.1-2.9,0-4.1l-6-6V47H0
	c0.6,9,6,17.7,12,23.4v4.8l-6.1,6c-0.6,0.6-0.8,1.3-0.8,2c0,0.7,0.3,1.5,0.8,2c1.1,1.1,2.9,1.1,4.1,0l7-6.9c0.5-0.5,1-1.3,1-2v-2.2
	c4,2.2,9,3.5,14,3.6v9.4c0,1.6,1.4,2.9,3,2.9C36.6,90,38.1,88.7,38.1,87.1z"/>
<path d="M64.1,26.4v37.2c7,0,12.3-3.5,15.6-8.7l3.7,3.8c1.1,1.1,2.9,1.1,4,0c1.1-1.1,1.1-2.9,0-4.1l-5.4-5.4
	c0.3-1.3,0.5-2.7,0.5-4.2s-0.2-2.8-0.5-4.2l5.4-5.4c1.1-1.1,1.1-2.9,0-4.1c-1.1-1.1-2.9-1.1-4.1,0l-3.6,3.8
	C76.3,29.9,71.1,26.4,64.1,26.4z"/>
</svg>
